<svg width="400" height="400" viewBox="0 0 400 400" fill="none" xmlns="http://www.w3.org/2000/svg">
<path d="M223.697 20C229.114 26.0788 236.305 30.7 244.758 32.9648C253.21 35.2294 261.747 34.8229 269.478 32.2676C273.137 39.5409 278.887 45.865 286.465 50.2402C294.043 54.6152 302.394 56.4313 310.522 55.9639C312.175 63.9368 316.092 71.534 322.279 77.7217C328.467 83.9089 336.064 87.8254 344.036 89.4775C343.568 97.6064 345.385 105.959 349.761 113.537C354.136 121.115 360.461 126.863 367.733 130.522C365.178 138.253 364.772 146.792 367.037 155.244C369.302 163.696 373.922 170.886 380 176.303C375.531 183.109 372.929 191.251 372.929 200.001C372.929 208.751 375.531 216.892 380 223.697C373.922 229.114 369.301 236.306 367.036 244.758C364.772 253.21 365.178 261.747 367.733 269.478C360.46 273.137 354.136 278.887 349.761 286.465C345.386 294.043 343.569 302.394 344.036 310.522C336.064 312.175 328.467 316.092 322.279 322.279C316.092 328.467 312.175 336.064 310.522 344.036C302.394 343.569 294.043 345.386 286.465 349.761C278.887 354.136 273.137 360.46 269.478 367.733C261.747 365.178 253.21 364.772 244.758 367.037C236.306 369.302 229.114 373.922 223.697 380C216.892 375.531 208.75 372.929 200 372.929C191.25 372.929 183.108 375.531 176.303 380C170.886 373.922 163.695 369.301 155.243 367.036C146.791 364.771 138.253 365.178 130.522 367.733C126.863 360.46 121.114 354.136 113.536 349.761C105.958 345.386 97.6061 343.568 89.4775 344.036C87.8253 336.064 83.909 328.467 77.7217 322.279C71.534 316.092 63.9367 312.174 55.9639 310.522C56.4313 302.394 54.6152 294.043 50.2402 286.465C45.8651 278.887 39.5408 273.137 32.2676 269.478C34.8229 261.747 35.2294 253.21 32.9648 244.758C30.7 236.305 26.0786 229.114 20 223.697C24.4692 216.891 27.0723 208.75 27.0723 200C27.0721 191.25 24.4693 183.108 20 176.303C26.0785 170.886 30.7 163.695 32.9648 155.243C35.2295 146.791 34.8232 138.253 32.2676 130.522C39.5408 126.863 45.8651 121.114 50.2402 113.536C54.6154 105.958 56.4316 97.6061 55.9639 89.4775C63.9367 87.8255 71.534 83.9092 77.7217 77.7217C83.9091 71.5341 87.8255 63.9366 89.4775 55.9639C97.6064 56.4316 105.959 54.6155 113.537 50.2402C121.115 45.865 126.863 39.5399 130.522 32.2666C138.253 34.8224 146.792 35.2297 155.244 32.9648C163.696 30.7 170.886 26.0783 176.303 20C183.109 24.4695 191.25 27.0723 200.001 27.0723C208.751 27.0722 216.892 24.4691 223.697 20Z" fill="#E61D2B"/>
<path d="M128.703 189.8C124.969 189.8 121.689 189.107 118.863 187.72C116.089 186.28 113.929 184.28 112.383 181.72C110.889 179.107 110.143 176.04 110.143 172.52V147.08C110.143 143.507 110.889 140.44 112.383 137.88C113.929 135.32 116.089 133.347 118.863 131.96C121.689 130.52 124.969 129.8 128.703 129.8C132.489 129.8 135.743 130.52 138.463 131.96C141.236 133.347 143.396 135.347 144.943 137.96C146.489 140.52 147.263 143.56 147.263 147.08H137.183C137.183 144.307 136.436 142.2 134.943 140.76C133.503 139.32 131.423 138.6 128.703 138.6C125.983 138.6 123.876 139.32 122.383 140.76C120.889 142.2 120.143 144.307 120.143 147.08V172.52C120.143 175.24 120.889 177.347 122.383 178.84C123.876 180.28 125.983 181 128.703 181C131.423 181 133.503 180.28 134.943 178.84C136.436 177.347 137.183 175.24 137.183 172.52H147.263C147.263 175.987 146.489 179.027 144.943 181.64C143.396 184.253 141.236 186.28 138.463 187.72C135.743 189.107 132.489 189.8 128.703 189.8ZM176.031 189.72C172.298 189.72 169.045 189 166.271 187.56C163.498 186.12 161.365 184.093 159.871 181.48C158.378 178.813 157.631 175.693 157.631 172.12V161.88C157.631 158.253 158.378 155.133 159.871 152.52C161.365 149.907 163.498 147.88 166.271 146.44C169.045 145 172.298 144.28 176.031 144.28C179.818 144.28 183.071 145 185.791 146.44C188.565 147.88 190.698 149.907 192.191 152.52C193.685 155.133 194.431 158.253 194.431 161.88V172.12C194.431 175.693 193.685 178.813 192.191 181.48C190.698 184.093 188.565 186.12 185.791 187.56C183.071 189 179.818 189.72 176.031 189.72ZM176.031 181C178.698 181 180.751 180.28 182.191 178.84C183.685 177.347 184.431 175.213 184.431 172.44V161.56C184.431 158.733 183.685 156.6 182.191 155.16C180.751 153.72 178.698 153 176.031 153C173.418 153 171.365 153.72 169.871 155.16C168.378 156.6 167.631 158.733 167.631 161.56V172.44C167.631 175.213 168.378 177.347 169.871 178.84C171.365 180.28 173.418 181 176.031 181ZM224.64 189.8C220.907 189.8 217.627 189.107 214.8 187.72C212.027 186.28 209.867 184.28 208.32 181.72C206.827 179.107 206.08 176.04 206.08 172.52V147.08C206.08 143.507 206.827 140.44 208.32 137.88C209.867 135.32 212.027 133.347 214.8 131.96C217.627 130.52 220.907 129.8 224.64 129.8C228.427 129.8 231.68 130.52 234.4 131.96C237.173 133.347 239.333 135.347 240.88 137.96C242.427 140.52 243.2 143.56 243.2 147.08H233.12C233.12 144.307 232.373 142.2 230.88 140.76C229.44 139.32 227.36 138.6 224.64 138.6C221.92 138.6 219.813 139.32 218.32 140.76C216.827 142.2 216.08 144.307 216.08 147.08V172.52C216.08 175.24 216.827 177.347 218.32 178.84C219.813 180.28 221.92 181 224.64 181C227.36 181 229.44 180.28 230.88 178.84C232.373 177.347 233.12 175.24 233.12 172.52H243.2C243.2 175.987 242.427 179.027 240.88 181.64C239.333 184.253 237.173 186.28 234.4 187.72C231.68 189.107 228.427 189.8 224.64 189.8ZM271.969 189.72C268.235 189.72 264.982 189 262.209 187.56C259.435 186.12 257.302 184.093 255.809 181.48C254.315 178.813 253.569 175.693 253.569 172.12V161.88C253.569 158.253 254.315 155.133 255.809 152.52C257.302 149.907 259.435 147.88 262.209 146.44C264.982 145 268.235 144.28 271.969 144.28C275.755 144.28 279.009 145 281.729 146.44C284.502 147.88 286.635 149.907 288.129 152.52C289.622 155.133 290.369 158.253 290.369 161.88V172.12C290.369 175.693 289.622 178.813 288.129 181.48C286.635 184.093 284.502 186.12 281.729 187.56C279.009 189 275.755 189.72 271.969 189.72ZM271.969 181C274.635 181 276.689 180.28 278.129 178.84C279.622 177.347 280.369 175.213 280.369 172.44V161.56C280.369 158.733 279.622 156.6 278.129 155.16C276.689 153.72 274.635 153 271.969 153C269.355 153 267.302 153.72 265.809 155.16C264.315 156.6 263.569 158.733 263.569 161.56V172.44C263.569 175.213 264.315 177.347 265.809 178.84C267.302 180.28 269.355 181 271.969 181ZM128.703 269.8C124.969 269.8 121.689 269.107 118.863 267.72C116.089 266.28 113.929 264.28 112.383 261.72C110.889 259.107 110.143 256.04 110.143 252.52V227.08C110.143 223.507 110.889 220.44 112.383 217.88C113.929 215.32 116.089 213.347 118.863 211.96C121.689 210.52 124.969 209.8 128.703 209.8C132.489 209.8 135.743 210.52 138.463 211.96C141.236 213.347 143.396 215.347 144.943 217.96C146.489 220.52 147.263 223.56 147.263 227.08H137.183C137.183 224.307 136.436 222.2 134.943 220.76C133.503 219.32 131.423 218.6 128.703 218.6C125.983 218.6 123.876 219.32 122.383 220.76C120.889 222.2 120.143 224.307 120.143 227.08V252.52C120.143 255.24 120.889 257.347 122.383 258.84C123.876 260.28 125.983 261 128.703 261C131.423 261 133.503 260.28 134.943 258.84C136.436 257.347 137.183 255.24 137.183 252.52H147.263C147.263 255.987 146.489 259.027 144.943 261.64C143.396 264.253 141.236 266.28 138.463 267.72C135.743 269.107 132.489 269.8 128.703 269.8ZM176.031 269.72C172.298 269.72 169.045 269 166.271 267.56C163.498 266.12 161.365 264.093 159.871 261.48C158.378 258.813 157.631 255.693 157.631 252.12V241.88C157.631 238.253 158.378 235.133 159.871 232.52C161.365 229.907 163.498 227.88 166.271 226.44C169.045 225 172.298 224.28 176.031 224.28C179.818 224.28 183.071 225 185.791 226.44C188.565 227.88 190.698 229.907 192.191 232.52C193.685 235.133 194.431 238.253 194.431 241.88V252.12C194.431 255.693 193.685 258.813 192.191 261.48C190.698 264.093 188.565 266.12 185.791 267.56C183.071 269 179.818 269.72 176.031 269.72ZM176.031 261C178.698 261 180.751 260.28 182.191 258.84C183.685 257.347 184.431 255.213 184.431 252.44V241.56C184.431 238.733 183.685 236.6 182.191 235.16C180.751 233.72 178.698 233 176.031 233C173.418 233 171.365 233.72 169.871 235.16C168.378 236.6 167.631 238.733 167.631 241.56V252.44C167.631 255.213 168.378 257.347 169.871 258.84C171.365 260.28 173.418 261 176.031 261ZM209.68 269V210.6H219.68V259.96H244.48V269H209.68ZM267.089 269.8C262.609 269.8 259.062 268.547 256.449 266.04C253.889 263.48 252.609 260.147 252.609 256.04C252.609 253.16 253.275 250.68 254.609 248.6C255.942 246.52 257.835 244.92 260.289 243.8C262.795 242.627 265.729 242.04 269.089 242.04H279.809V238.92C279.809 236.787 279.142 235.16 277.809 234.04C276.529 232.867 274.609 232.28 272.049 232.28C269.702 232.28 267.809 232.733 266.369 233.64C264.982 234.547 264.235 235.827 264.129 237.48H254.529C254.742 233.48 256.395 230.28 259.489 227.88C262.635 225.427 266.849 224.2 272.129 224.2C277.729 224.2 282.075 225.507 285.169 228.12C288.262 230.733 289.809 234.413 289.809 239.16V269H280.049V260.6H278.449L280.209 259.16C280.209 261.347 279.675 263.24 278.609 264.84C277.542 266.387 276.022 267.613 274.049 268.52C272.075 269.373 269.755 269.8 267.089 269.8ZM270.289 261.64C273.222 261.64 275.542 260.92 277.249 259.48C278.955 258.04 279.809 256.12 279.809 253.72V248.52H269.569C267.382 248.52 265.649 249.133 264.369 250.36C263.089 251.533 262.449 253.107 262.449 255.08C262.449 257.053 263.115 258.653 264.449 259.88C265.835 261.053 267.782 261.64 270.289 261.64Z" fill="white"/>
</svg>
